<svg xmlns="http://www.w3.org/2000/svg" viewBox="0 0 479.51 419.92"><defs><style>.cls-1,.cls-3{fill:#0070c4;}.cls-2{fill:#00aee6;}.cls-3{font-size:95px;font-family:LucidaSans, Lucida Sans;}</style></defs><title>Recurso 1</title><g id="Capa_2" data-name="Capa 2"><g id="Capa_1-2" data-name="Capa 1"><path class="cls-1" d="M0,87.32C20.73,97.74,41.42,108,62.13,118.4q0,77.61,0,155.21L0,242.18Z"/><path class="cls-1" d="M248.4,87.25V242.18l-62.13,31.43q0-77.61,0-155.26C207,107.94,227.69,97.67,248.4,87.25Z"/><polygon class="cls-2" points="248.4 87.25 124.21 149.43 0.02 87.32 62.13 56.28 124.21 87.14 186.26 56.28 248.4 87.25"/><path class="cls-1" d="M479.51,108.52V244.18l-54.37,27.36-54.29,27.33-54.38-27.35L262.1,244.18V108.47l54.38,27.37v81.52l0,0,54.34,27,54.29-27q0-40.77,0-81.55C443.26,126.68,461.39,117.64,479.51,108.52Z"/><polygon class="cls-2" points="479.51 108.52 370.8 54.27 316.46 81.45 316.42 0 262.1 27.05 262.1 108.47 316.46 135.8 370.8 108.8 425.12 135.8 479.51 108.52"/><text class="cls-3" transform="translate(45.13 399.88)">MB Corp</text></g></g></svg>